<svg width="31" height="36" viewBox="0 0 31 36" fill="none" xmlns="http://www.w3.org/2000/svg">
<path d="M27.3438 4.75H24.0625V0.921875C24.0625 0.648438 23.7891 0.375 23.5156 0.375H22.4219C22.0801 0.375 21.875 0.648438 21.875 0.921875V4.75H8.75V0.921875C8.75 0.648438 8.47656 0.375 8.20312 0.375H7.10938C6.76758 0.375 6.5625 0.648438 6.5625 0.921875V4.75H3.28125C1.43555 4.75 0 6.25391 0 8.03125V32.0938C0 33.9395 1.43555 35.375 3.28125 35.375H27.3438C29.1211 35.375 30.625 33.9395 30.625 32.0938V8.03125C30.625 6.25391 29.1211 4.75 27.3438 4.75ZM28.4375 32.0938C28.4375 32.709 27.8906 33.1875 27.3438 33.1875H3.28125C2.66602 33.1875 2.1875 32.709 2.1875 32.0938V13.5H28.4375V32.0938ZM28.4375 11.3125H2.1875V8.03125C2.1875 7.48438 2.66602 6.9375 3.28125 6.9375H27.3438C27.8906 6.9375 28.4375 7.48438 28.4375 8.03125V11.3125ZM7.65625 26.625H14.2188C14.7656 26.625 15.3125 26.1465 15.3125 25.5312V18.9688C15.3125 18.4219 14.7656 17.875 14.2188 17.875H7.65625C7.04102 17.875 6.5625 18.4219 6.5625 18.9688V25.5312C6.5625 26.1465 7.04102 26.625 7.65625 26.625ZM8.75 20.0625H13.125V24.4375H8.75V20.0625Z" fill="#D92027"/>
</svg>
